<svg xmlns="http://www.w3.org/2000/svg" viewBox="0 0 960 540">
<defs>
  <filter id="softShadow" x="-20%" y="-20%" width="140%" height="140%"><feDropShadow dx="0" dy="10" stdDeviation="10" flood-color="#000" flood-opacity="0.35"/></filter>
  <filter id="glow"><feGaussianBlur stdDeviation="4" result="b"/><feMerge><feMergeNode in="b"/><feMergeNode in="SourceGraphic"/></feMerge></filter>
  <linearGradient id="gold" x1="0" x2="1"><stop offset="0" stop-color="#FFD27A"/><stop offset="1" stop-color="#B98537"/></linearGradient>
</defs><linearGradient id="wood" x1="0" x2="1"><stop offset="0" stop-color="#241712"/><stop offset="1" stop-color="#4A3022"/></linearGradient><rect width="960" height="540" rx="40" fill="url(#wood)"/><path d="M0 110h960M0 230h960M0 370h960" stroke="#7A563C" opacity=".25" stroke-width="5"/>
<g filter="url(#softShadow)"><rect x="105" y="150" width="750" height="250" rx="30" fill="#1B1A20" stroke="#A98768" stroke-width="5"/><rect x="145" y="190" width="180" height="150" rx="18" fill="#EFE7D5"/><rect x="390" y="190" width="180" height="150" rx="18" fill="#EFE7D5"/><rect x="635" y="190" width="180" height="150" rx="18" fill="#EFE7D5"/>
<g stroke="#292631" stroke-width="5"><circle cx="235" cy="265" r="42" fill="#5B7FD0"/><path d="M480 220l50 90h-100z" fill="#C7A548"/><path d="M725 218c45 18 55 66 5 100c-46-36-42-83-5-100z" fill="#4E9A72"/></g></g>
<text x="84" y="502" fill="#F5F3FA" font-size="34" font-family="sans-serif" font-weight="700">OBJECT RECALL</text><text x="84" y="70" fill="#E4C99B" font-size="18" font-family="sans-serif" letter-spacing="4">ARCHIVE TRAY</text>
</svg>
