<svg xmlns="http://www.w3.org/2000/svg" viewBox="0 0 960 540">
<defs>
  <filter id="softShadow" x="-20%" y="-20%" width="140%" height="140%"><feDropShadow dx="0" dy="10" stdDeviation="10" flood-color="#000" flood-opacity="0.35"/></filter>
  <filter id="glow"><feGaussianBlur stdDeviation="4" result="b"/><feMerge><feMergeNode in="b"/><feMergeNode in="SourceGraphic"/></feMerge></filter>
  <linearGradient id="gold" x1="0" x2="1"><stop offset="0" stop-color="#FFD27A"/><stop offset="1" stop-color="#B98537"/></linearGradient>
</defs><radialGradient id="bg" cx="55%" cy="50%" r="75%"><stop offset="0" stop-color="#182B45"/><stop offset="1" stop-color="#0D111A"/></radialGradient><rect width="960" height="540" rx="40" fill="url(#bg)"/>
<g stroke="#5DA9E9" opacity=".22"><path d="M120 80v360"/><path d="M210 80v360"/><path d="M300 80v360"/><path d="M390 80v360"/><path d="M480 80v360"/><path d="M570 80v360"/><path d="M660 80v360"/><path d="M750 80v360"/><path d="M840 80v360"/><path d="M100 100h760"/><path d="M100 170h760"/><path d="M100 240h760"/><path d="M100 310h760"/><path d="M100 380h760"/><path d="M100 450h760"/></g>
<g filter="url(#glow)" stroke="#BFAEFF" stroke-width="8" fill="none"><path d="M220 340L360 220L520 220L660 315"/><circle cx="220" cy="340" r="34" fill="#1C2942"/><rect x="326" y="186" width="68" height="68" fill="#1C2942"/><path d="M520 180l46 80h-92z" fill="#1C2942"/><path d="M660 280l38 38l-38 38l-38-38z" fill="#1C2942"/></g>
<text x="84" y="502" fill="#F5F3FA" font-size="34" font-family="sans-serif" font-weight="700">PATTERN RECALL</text><text x="84" y="70" fill="#8FD8FF" font-size="18" font-family="sans-serif" letter-spacing="4">BLUEPRINT SEQUENCE</text>
</svg>
