<svg xmlns="http://www.w3.org/2000/svg" viewBox="0 0 960 540"><defs><filter id="s"><feDropShadow dx="0" dy="10" stdDeviation="10" flood-color="#000" flood-opacity=".35"/></filter><filter id="g"><feGaussianBlur stdDeviation="4" result="b"/><feMerge><feMergeNode in="b"/><feMergeNode in="SourceGraphic"/></feMerge></filter><linearGradient id="bg" x1="0" y1="0" x2="1" y2="1"><stop offset="0" stop-color="#16111D"/><stop offset="1" stop-color="#3A2B1E"/></linearGradient></defs><rect width="960" height="540" rx="40" fill="url(#bg)"/><circle cx="770" cy="100" r="210" fill="#FFB84D" opacity=".14"/><circle cx="180" cy="420" r="240" fill="#6A3DFF" opacity=".12"/><g filter="url(#s)"><rect x="100" y="70" width="760" height="390" rx="28" fill="#241B23" stroke="#6A5342" stroke-width="4"/><rect x="135" y="105" width="690" height="320" rx="18" fill="#D9C7A7"/><path d="M135 190h690M255 105v320M500 105v320M695 105v320" stroke="#8A6A49" stroke-width="3" opacity=".45"/><g stroke="#3B2D25" stroke-width="4" fill="none"><path d="M195 315c80-50 145-50 215 0"/><path d="M555 205h165v105H555z"/><path d="M585 340l115-40"/></g><g filter="url(#g)"><circle cx="620" cy="258" r="54" fill="none" stroke="#FFB84D" stroke-width="8"/><path d="M658 296l72 72" stroke="#FFB84D" stroke-width="12" stroke-linecap="round"/></g></g><text x="84" y="502" fill="#F5F3FA" font-size="34" font-family="sans-serif" font-weight="700">SCENE INVESTIGATION</text><text x="84" y="70" fill="#C9B8FF" font-size="18" font-family="sans-serif" letter-spacing="4">EVIDENCE BOARD</text></svg>
